<?xml version="1.0" encoding="utf-8"?>
<!-- Generator: Adobe Illustrator 19.0.0, SVG Export Plug-In . SVG Version: 6.00 Build 0)  -->
<svg version="1.0" id="Layer_1" xmlns="http://www.w3.org/2000/svg" xmlns:xlink="http://www.w3.org/1999/xlink" x="0px" y="0px"
	 viewBox="-76 138.7 146.5 24.4" style="enable-background:new -76 138.7 146.5 24.4;" xml:space="preserve">
<style type="text/css">
	.st0{fill:#FFFFFF;}
</style>
<g>
	<polygon class="st0" points="-40.3,159.5 -38.8,159.5 -38.8,151.6 -29,151.6 -29,150.1 -38.8,150.1 -38.8,143.7 -28.6,143.7 
		-28.6,142.3 -40.3,142.3 	"/>
	<path class="st0" d="M-19.4,142.3l-7.2,17.2h1.6l2.1-5h8.9l2.1,5h1.6l-7.2-17.2H-19.4z M-22.3,153l3.9-9.3l3.9,9.3H-22.3z"/>
	<path class="st0" d="M4,150.6c1.8-0.5,3-1.8,3-3.9c0-3.2-2.5-4.5-6.1-4.5h-6.6v17.2h6.9c3.7,0,6.1-1.4,6.1-4.7
		C7.3,152.5,5.9,151.1,4,150.6z M-4.3,143.7h5.1c2.6,0,4.6,0.7,4.6,3.2c0,2.4-1.9,3.2-4.6,3.2h-5.1V143.7z M1.1,158.1h-5.4v-6.6h5.4
		c2.8,0,4.6,0.8,4.6,3.3C5.7,157.2,3.9,158.1,1.1,158.1z"/>
	<path class="st0" d="M25.7,147.1c0-3-2.1-4.8-5.9-4.8h-6.6v17.2h1.5v-7.6h2.6l6.4,7.6h1.9l-6.5-7.6h0.7
		C23.4,151.9,25.7,150,25.7,147.1z M14.7,150.5v-6.8h5c2.8,0,4.4,1.2,4.4,3.4c0,2.2-1.5,3.4-4.4,3.4H14.7z"/>
	<rect x="31.4" y="142.3" class="st0" width="1.5" height="17.2"/>
	<polygon class="st0" points="52.4,142.3 50.5,142.3 42.9,150.1 40.6,150.1 40.6,142.3 39.1,142.3 39.1,159.5 40.6,159.5 
		40.6,151.6 42.9,151.6 50.9,159.5 52.9,159.5 44.1,150.8 	"/>
	<path class="st0" d="M63.3,142.3h-1.8l-7.2,17.2h1.6l2.1-5h8.9l2.1,5h1.6L63.3,142.3z M58.5,153l3.9-9.3l3.9,9.3H58.5z"/>
	<path class="st0" d="M-63.9,138.7c-6.7,0-12.2,5.5-12.2,12.2c0,6.7,5.5,12.2,12.2,12.2s12.2-5.5,12.2-12.2
		C-51.7,144.2-57.1,138.7-63.9,138.7z M-65.1,140.4C-65.1,140.4-65.1,140.4-65.1,140.4c0.2,0,0.3,0.1,0.3,0.3v7.5v0.2c0,0,0,0,0,0
		c0,0-0.1,0.2-0.1,0.4c-0.1,0.2-0.4,0.4-0.6,0.5c-0.2,0-0.4,0-0.5,0c0,0,0,0,0,0l-0.2,0l0,0l-7.2-2.3c-0.2-0.1-0.2-0.2-0.2-0.4
		C-72,143.2-68.8,140.8-65.1,140.4z M-73.6,146.7C-73.6,146.7-73.6,146.7-73.6,146.7c0,0.1,0,0.1,0,0.1l0,0
		C-73.6,146.8-73.6,146.8-73.6,146.7C-73.6,146.7-73.6,146.7-73.6,146.7z M-74.2,148.5L-74.2,148.5
		C-74.2,148.5-74.2,148.5-74.2,148.5C-74.2,148.5-74.2,148.5-74.2,148.5z M-71,158.7c-2.1-1.9-3.4-4.7-3.4-7.8
		c0-0.7,0.1-1.4,0.2-2.1c0.1-0.2,0.2-0.2,0.4-0.2l7.1,2.3l0.2,0.1c0,0,0,0,0,0c0,0,0.2,0.1,0.4,0.3c0.2,0.2,0.3,0.5,0.2,0.8
		c0,0,0,0,0,0c0,0,0,0,0,0c0,0.1,0,0.1,0,0.2c0,0.1-0.1,0.1-0.1,0.2l-0.1,0.2l0,0l-4.4,6.1C-70.7,158.8-70.9,158.8-71,158.7z
		 M-69.4,160L-69.4,160C-69.3,160-69.3,160-69.4,160C-69.3,160-69.3,160-69.4,160z M-58.6,160.1C-58.6,160.1-58.6,160.1-58.6,160.1
		c-1.5,0.9-3.3,1.4-5.2,1.4c-1.9,0-3.7-0.5-5.2-1.4c-0.1-0.1-0.2-0.3-0.1-0.4l4.4-6l0.2-0.2c0.1-0.1,0.2-0.1,0.3-0.2c0,0,0,0,0,0
		c0,0,0,0,0,0c0.2-0.1,0.5-0.1,0.8,0c0.2,0.1,0.3,0.2,0.4,0.3c0,0,0,0,0,0l0.1,0.1l0,0l4.4,6.1C-58.5,159.9-58.5,160-58.6,160.1z
		 M-53.5,148.5C-53.5,148.5-53.5,148.5-53.5,148.5C-53.5,148.5-53.5,148.5-53.5,148.5L-53.5,148.5z M-53.5,148.8
		c0.1,0.7,0.2,1.4,0.2,2.1c0,3.1-1.3,5.9-3.4,7.8c-0.1,0.1-0.3,0.1-0.5-0.1l-4.4-6l-0.1-0.2c0,0,0,0,0,0c0,0-0.1-0.2-0.2-0.4
		c0-0.3,0.1-0.5,0.3-0.7c0.2-0.1,0.4-0.3,0.4-0.3l0.2-0.1l0,0l7.2-2.3C-53.7,148.5-53.6,148.6-53.5,148.8z M-54.1,146.8L-54.1,146.8
		C-54.1,146.8-54.1,146.8-54.1,146.8C-54.1,146.8-54.1,146.8-54.1,146.8z M-54.4,146.9l-7.1,2.3l-0.2,0.1c0,0,0,0,0,0
		c0,0-0.2,0-0.5,0c-0.3-0.1-0.5-0.2-0.6-0.5c-0.1-0.2-0.1-0.4-0.1-0.4c0,0,0,0,0,0v-0.2v0v-7.5c0-0.2,0.1-0.3,0.3-0.3c0,0,0,0,0,0
		c3.8,0.4,6.9,2.8,8.4,6.2C-54.2,146.7-54.3,146.9-54.4,146.9z"/>
</g>
</svg>
