<?xml version="1.0" encoding="utf-8"?>
<!-- Generator: Adobe Illustrator 19.0.0, SVG Export Plug-In . SVG Version: 6.00 Build 0)  -->
<svg version="1.1" id="Layer_1" xmlns="http://www.w3.org/2000/svg" xmlns:xlink="http://www.w3.org/1999/xlink" x="0px" y="0px"
	 viewBox="0 0 300 300" style="enable-background:new 0 0 300 300;" xml:space="preserve">
<style type="text/css">
	.st0{fill:#FFFFFF;}
</style>
<g>
	<path class="st0" d="M100.9,150.7c0,0-0.1,0-0.3-0.1c-0.2-0.1-0.3-0.1-0.3-0.1l0-0.1l0-0.1c0,0,0.1,0,0.3-0.1
		c0.1,0,0.3-0.1,0.3-0.1l0,0l0-0.2l0,0c0,0-0.1,0-0.3-0.1c-0.2,0-0.3-0.1-0.3-0.1c0,0,0,0,0,0l0-0.1c0,0,0.1-0.1,0.3-0.1
		c0.1,0,0.3-0.1,0.3-0.1l0,0l0-0.2l0,0c0,0-0.1,0-0.3,0c-0.2,0-0.3-0.1-0.3-0.1l0-0.1c0,0,0.1-0.1,0.3-0.1c0.1,0,0.3-0.1,0.3-0.1
		l0,0l0-0.2l0,0c0,0-0.1,0-0.3,0c-0.1,0-0.3,0-0.3,0l0-0.1c0,0,0.1-0.1,0.3-0.1c0.1-0.1,0.2-0.1,0.2-0.1l0,0l0-0.2l0,0
		c0,0-0.1,0-0.3,0c-0.2,0-0.3,0-0.3,0l0-0.1c0,0,0.1-0.1,0.3-0.2c0.1-0.1,0.2-0.1,0.2-0.1l0,0l0-0.2l0-0.1l0,0c0,0-0.1,0-0.3,0
		c-0.2,0-0.3,0-0.3,0l0-0.1c0,0,0.1-0.1,0.3-0.2c0.1-0.1,0.2-0.1,0.2-0.1l0,0l0,0c0,0,0,0,0-0.1c0,0,0-0.1,0-0.1l0,0l0,0l0,0
		c0,0-0.1,0-0.3,0c-0.2,0-0.3,0-0.3,0l0-0.1c0,0,0.1-0.1,0.2-0.2c0.1-0.1,0.2-0.1,0.2-0.1l0,0l-0.1-0.2l0,0c0,0-0.1,0-0.3,0
		c-0.2,0-0.3,0-0.3,0l0-0.1c0,0,0.2-0.2,0.2-0.2c0.1-0.1,0.2-0.2,0.2-0.2l0,0l-0.1-0.2l0,0c0,0-0.1,0-0.3,0.1c-0.2,0-0.3,0-0.3,0
		l-0.1-0.1c0,0,0.1-0.1,0.2-0.2c0.1-0.1,0.2-0.2,0.2-0.2l0,0l-0.1-0.2l0,0c0,0-0.1,0-0.3,0.1c-0.2,0-0.3,0.1-0.3,0.1l0-0.1
		c0,0,0,0,0,0l0,0c0,0,0.1-0.1,0.2-0.2c0.1-0.1,0.2-0.2,0.2-0.2l0,0l-0.1-0.2l0,0c0,0-0.1,0-0.3,0.1c-0.2,0.1-0.3,0.1-0.3,0.1
		l-0.1-0.1c0,0,0.1-0.1,0.2-0.2c0.1-0.1,0.2-0.2,0.2-0.2l0,0l-0.1-0.2l0,0c0,0-0.1,0-0.3,0.1c-0.1,0-0.2,0.1-0.3,0.1h0l-0.1-0.1
		c0,0,0.1-0.1,0.2-0.2c0.1-0.1,0.2-0.2,0.2-0.2l0,0l-0.1-0.1l0,0l0,0c0,0-0.1,0.1-0.2,0.1c-0.2,0.1-0.3,0.1-0.3,0.1l-0.1-0.1
		c0,0,0.1-0.1,0.2-0.3c0.1-0.1,0.2-0.2,0.2-0.2l0,0l-0.1-0.1c0,0,0,0,0-0.1l0,0l0,0l0,0c0,0-0.1,0.1-0.2,0.1
		c-0.2,0.1-0.2,0.1-0.3,0.1l-0.1-0.1c0,0,0.1-0.1,0.2-0.3c0.1-0.1,0.2-0.2,0.2-0.2l0,0l-0.1-0.2l0,0c0,0-0.1,0.1-0.2,0.1
		c-0.1,0.1-0.2,0.1-0.3,0.1l-0.1-0.1c0,0,0.1-0.2,0.1-0.3c0.1-0.1,0.1-0.2,0.1-0.2l0,0l-0.2-0.1l0,0c0,0-0.1,0.1-0.2,0.1
		c-0.2,0.1-0.2,0.1-0.3,0.1l-0.1-0.1c0,0,0-0.1,0.1-0.3c0.1-0.1,0.1-0.2,0.1-0.2l0,0l-0.2-0.1l0,0c0,0-0.1,0.1-0.2,0.2
		c-0.2,0.1-0.2,0.2-0.3,0.2l0,0l-0.1,0c0,0,0-0.1,0.1-0.3c0.1-0.1,0.1-0.2,0.1-0.2l0,0l-0.2-0.1l0,0c0,0-0.1,0.1-0.2,0.2
		c-0.2,0.1-0.2,0.2-0.2,0.2l-0.1-0.1c0,0,0-0.1,0.1-0.3c0.1-0.1,0.1-0.2,0.1-0.3l0,0l-0.2-0.1l0,0c0,0-0.1,0.1-0.2,0.2
		c-0.1,0.1-0.2,0.2-0.2,0.2l-0.1-0.1c0,0,0-0.1,0.1-0.3c0-0.1,0.1-0.3,0.1-0.3l0,0l-0.2-0.1l0,0l0,0c0,0-0.1,0.1-0.2,0.2
		c-0.1,0.1-0.2,0.2-0.2,0.2l-0.1-0.1c0,0,0-0.1,0.1-0.3c0-0.1,0.1-0.3,0.1-0.3l0,0l0,0c0,0,0,0-0.1,0c0,0-0.1,0-0.1,0l0,0l0,0l0,0
		c0,0-0.1,0.1-0.2,0.2c-0.1,0.1-0.2,0.2-0.2,0.2l-0.1-0.1c0,0,0-0.1,0-0.3c0-0.1,0.1-0.3,0.1-0.3l0,0l-0.2-0.1l0,0
		c0,0-0.1,0.1-0.2,0.2c-0.1,0.1-0.2,0.2-0.2,0.2l-0.1-0.1c0,0,0-0.2,0-0.3c0-0.1,0-0.3,0-0.3l0,0l-0.2-0.1l0,0c0,0-0.1,0.1-0.2,0.2
		c-0.1,0.1-0.2,0.2-0.2,0.2l-0.1,0c0,0,0-0.1,0-0.3c0-0.1,0-0.3,0-0.3l0,0l-0.2-0.1l0,0c0,0-0.1,0.1-0.1,0.2
		c-0.1,0.2-0.2,0.2-0.2,0.2l-0.1,0c0,0,0,0,0,0l0,0c0,0,0-0.1,0-0.3c0-0.1,0-0.3,0-0.3l0,0l-0.2-0.1l0,0c0,0-0.1,0.1-0.1,0.2
		c-0.1,0.1-0.1,0.2-0.2,0.3c0,0,0,0,0,0l-0.1,0c0,0,0-0.1,0-0.3c0-0.1,0-0.3,0-0.3l0,0l-0.2,0l0,0c0,0-0.1,0.1-0.1,0.2
		c-0.1,0.2-0.1,0.2-0.1,0.3l-0.1,0c0,0,0-0.1,0-0.3c0-0.1,0-0.3,0-0.3l0,0l-0.2,0l0,0c0,0,0,0.1-0.1,0.3c-0.1,0.2-0.1,0.3-0.1,0.3
		l-0.1,0c0,0,0-0.1-0.1-0.3c0-0.1,0-0.3,0-0.3l0,0l-0.2,0l0,0c0,0,0,0.1-0.1,0.3c-0.1,0.2-0.1,0.3-0.1,0.3l-0.1,0c0,0,0-0.1-0.1-0.3
		c0-0.1,0-0.3,0-0.3l0,0l-0.1,0c0,0-0.1,0-0.1,0l0,0l0,0c0,0,0,0.1-0.1,0.3c0,0.2-0.1,0.3-0.1,0.3l-0.1,0c0,0,0-0.1-0.1-0.3
		c0-0.1-0.1-0.3-0.1-0.3l0,0l-0.1,0c0,0-0.1,0-0.1,0l0,0l0,0l0,0c0,0,0,0.1-0.1,0.3c0,0.2-0.1,0.3-0.1,0.3l-0.1,0c0,0,0-0.1-0.1-0.3
		c0-0.1-0.1-0.3-0.1-0.3l0,0l-0.2,0l0,0c0,0,0,0.1,0,0.3c0,0.1,0,0.3-0.1,0.3l-0.1,0c0,0-0.1-0.1-0.1-0.3c0-0.1-0.1-0.3-0.1-0.3l0,0
		l-0.2,0l0,0c0,0,0,0.1,0,0.3c0,0.2,0,0.3-0.1,0.3l-0.1,0c0,0-0.1-0.1-0.1-0.3c-0.1-0.1-0.1-0.3-0.1-0.3l0,0l-0.1,0c0,0-0.1,0-0.1,0
		l0,0l0,0l0,0c0,0,0,0.1,0,0.3c0,0.2,0,0.3,0,0.3l-0.1,0c0,0-0.1-0.1-0.1-0.3c-0.1-0.1-0.1-0.2-0.1-0.2l0,0l0,0c0,0,0,0-0.1,0l0,0
		c0,0,0,0-0.1,0l0,0l0,0l0,0c0,0,0,0.1,0,0.3c0,0.2,0,0.3,0,0.3l-0.1,0c0,0-0.1-0.1-0.2-0.3c-0.1-0.1-0.1-0.2-0.1-0.2l0,0l-0.2,0.1
		l0,0c0,0,0,0.1,0,0.3c0,0.2,0,0.3,0,0.3l-0.1,0c0,0-0.1-0.2-0.2-0.2C85,139.1,85,139,85,139l0,0l-0.2,0.1l0,0c0,0,0,0.1,0,0.3
		c0,0.2,0,0.3,0,0.3l-0.1,0c0,0-0.1-0.1-0.2-0.2c-0.1-0.1-0.2-0.2-0.2-0.2l0,0l-0.2,0.1l0,0c0,0,0,0.1,0,0.3c0,0.2,0,0.3,0,0.3
		l-0.1,0c0,0,0,0,0,0l0,0c0,0-0.1-0.1-0.2-0.2c-0.1-0.1-0.2-0.2-0.2-0.2l0,0l-0.2,0.1l0,0c0,0,0,0.1,0.1,0.3c0,0.2,0,0.3,0,0.3
		l-0.1,0.1c0,0-0.1-0.1-0.2-0.2c-0.1-0.1-0.2-0.2-0.2-0.2l0,0l-0.2,0.1l0,0c0,0,0,0.1,0.1,0.3c0,0.2,0.1,0.3,0.1,0.3l-0.1,0.1
		c0,0-0.1-0.1-0.2-0.2c-0.1-0.1-0.2-0.2-0.2-0.2l0,0l-0.2,0.1l0,0l0,0c0,0,0,0.1,0.1,0.3c0.1,0.2,0.1,0.3,0.1,0.3l-0.1,0.1
		c0,0-0.1-0.1-0.2-0.2c-0.1-0.1-0.2-0.2-0.2-0.2l0,0l0,0c0,0,0,0-0.1,0c0,0,0,0-0.1,0l0,0l0,0l0,0c0,0,0.1,0.1,0.1,0.3
		c0.1,0.2,0.1,0.3,0.1,0.3l-0.1,0.1c0,0-0.1-0.1-0.2-0.2c-0.1-0.1-0.2-0.2-0.2-0.2l0,0l-0.2,0.1l0,0c0,0,0.1,0.1,0.1,0.2
		c0.1,0.2,0.1,0.2,0.1,0.3l-0.1,0.1c0,0-0.2-0.1-0.3-0.2c-0.1-0.1-0.2-0.2-0.2-0.2l0,0l-0.2,0.1l0,0c0,0,0.1,0.1,0.1,0.2
		c0.1,0.2,0.1,0.3,0.1,0.3l-0.1,0.1l0,0c0,0-0.1-0.1-0.3-0.1c-0.1-0.1-0.2-0.1-0.2-0.1l0,0l-0.2,0.1l0,0c0,0,0.1,0.1,0.1,0.2
		c0.1,0.2,0.1,0.2,0.1,0.3c0,0,0,0,0,0l-0.1,0.1c0,0-0.1,0-0.3-0.1c-0.1-0.1-0.2-0.1-0.2-0.1l0,0l-0.1,0.2l0,0c0,0,0.1,0.1,0.2,0.2
		c0,0.1,0.1,0.2,0.2,0.3l-0.1,0.1c0,0-0.1,0-0.3-0.1c-0.1-0.1-0.2-0.1-0.2-0.1l0,0l-0.1,0.2l0,0c0,0,0.1,0.1,0.2,0.2
		c0.1,0.1,0.2,0.2,0.2,0.3l-0.1,0.1c0,0-0.1,0-0.3-0.1c-0.1-0.1-0.2-0.1-0.2-0.1l0,0l-0.1,0.1l0,0c0,0,0,0,0,0l0,0l0,0l0,0
		c0,0,0.1,0.1,0.2,0.2c0.1,0.1,0.2,0.2,0.2,0.2l-0.1,0.1c0,0-0.1,0-0.3-0.1c-0.1,0-0.3-0.1-0.3-0.1l0,0l-0.1,0.2l0,0
		c0,0,0.1,0.1,0.2,0.2c0.1,0.1,0.2,0.2,0.2,0.2l-0.1,0.1c0,0-0.2-0.1-0.3-0.1c-0.1,0-0.3-0.1-0.3-0.1l0,0l-0.1,0.2l0,0
		c0,0,0.1,0.1,0.2,0.2c0.1,0.1,0.2,0.2,0.2,0.2l0,0.1c0,0,0,0,0,0c0,0-0.1,0-0.3-0.1c-0.1,0-0.3-0.1-0.3-0.1l0,0l-0.1,0.2l0,0
		c0,0,0.1,0.1,0.2,0.2c0.1,0.1,0.2,0.2,0.2,0.2l0,0c0,0,0,0,0,0l0,0.1c0,0-0.1,0-0.3,0c-0.1,0-0.3-0.1-0.3-0.1l0,0l-0.1,0.2l0,0
		c0,0,0.1,0.1,0.2,0.2c0.1,0.1,0.2,0.2,0.2,0.2l0,0.1c0,0-0.1,0-0.3,0c-0.1,0-0.3,0-0.3,0l0,0l-0.1,0.2l0,0c0,0,0.1,0.1,0.2,0.1
		c0.1,0.1,0.2,0.2,0.2,0.2l0,0.1c0,0-0.1,0-0.3,0c-0.1,0-0.3,0-0.3,0l0,0l0,0.1l0,0.1c0,0,0,0,0,0l0,0l0,0l0,0c0,0,0.1,0.1,0.2,0.1
		c0.1,0.1,0.2,0.1,0.3,0.2l0,0.1c0,0-0.1,0-0.3,0c-0.1,0-0.3,0-0.3,0l0,0l0,0c0,0,0,0,0,0.1c0,0,0,0.1,0,0.1l0,0l0,0l0,0
		c0,0,0.1,0.1,0.2,0.1c0.2,0.1,0.2,0.1,0.3,0.2l0,0.1c0,0-0.1,0-0.3,0c-0.1,0-0.3,0-0.3,0l0,0l0,0.2l0,0c0,0,0.1,0.1,0.2,0.1
		c0.2,0.1,0.2,0.1,0.3,0.1l0,0.1c0,0-0.1,0-0.3,0c-0.1,0-0.3,0-0.3,0l0,0l0,0.2l0,0c0,0,0.1,0,0.3,0.1c0.2,0.1,0.3,0.1,0.3,0.1
		l0,0.1c0,0-0.1,0-0.3,0.1c-0.1,0-0.3,0-0.3,0l0,0l0,0.2l0,0c0,0,0.1,0,0.3,0.1c0.2,0.1,0.3,0.1,0.3,0.1l0,0.1c0,0,0,0,0,0
		c0,0-0.1,0-0.3,0.1c-0.1,0-0.3,0.1-0.3,0.1l0,0l0,0.2l0,0c0,0,0.1,0,0.3,0.1c0.2,0.1,0.3,0.1,0.3,0.1l0,0.1l0,0.1
		c0,0-0.1,0.1-0.3,0.1c-0.1,0-0.3,0.1-0.3,0.1l0,0l0,0.2l0,0c0,0,0.1,0,0.3,0.1c0.2,0,0.3,0.1,0.3,0.1c0,0,0,0,0,0l0,0.1
		c0,0-0.1,0-0.3,0.1c-0.1,0-0.3,0.1-0.3,0.1l0,0l0,0.2l0,0c0,0,0.1,0,0.3,0c0.2,0,0.3,0.1,0.3,0.1l0,0.1c0,0-0.1,0.1-0.3,0.1
		c-0.1,0-0.3,0.1-0.3,0.1l0,0l0,0.2l0,0c0,0,0.1,0,0.3,0c0.1,0,0.3,0,0.3,0l0,0.1c0,0-0.1,0.1-0.3,0.1c-0.1,0.1-0.2,0.1-0.2,0.1l0,0
		l0,0.2l0,0c0,0,0.1,0,0.3,0c0.2,0,0.3,0,0.3,0l0,0.1c0,0-0.1,0.1-0.3,0.2c-0.1,0.1-0.2,0.1-0.2,0.1l0,0l0,0.2l0,0c0,0,0,0,0,0l0,0
		l0,0l0,0c0,0,0.1,0,0.3,0c0.2,0,0.3,0,0.3,0l0,0.1c0,0-0.1,0.1-0.3,0.2c-0.1,0.1-0.2,0.1-0.2,0.1l0,0l0,0c0,0,0,0,0,0.1
		c0,0,0,0.1,0,0.1l0,0l0,0l0,0c0,0,0.1,0,0.3,0c0.2,0,0.3,0,0.3,0l0,0.1c0,0-0.1,0.1-0.2,0.2c-0.1,0.1-0.2,0.1-0.2,0.1l0,0l0.1,0.2
		l0,0c0,0,0.1,0,0.3,0c0.2,0,0.3,0,0.3,0l0,0.1c0,0-0.2,0.2-0.2,0.2c-0.1,0.1-0.2,0.2-0.2,0.2l0,0l0.1,0.2l0,0c0,0,0.1,0,0.3-0.1
		c0.2,0,0.3,0,0.3,0l0.1,0.1c0,0-0.1,0.1-0.2,0.2c-0.1,0.1-0.2,0.2-0.2,0.2l0,0L78,156l0,0c0,0,0.1,0,0.3-0.1c0.2,0,0.3-0.1,0.3-0.1
		l0,0.1c0,0,0,0,0,0l0,0c0,0-0.1,0.1-0.2,0.2c-0.1,0.1-0.2,0.2-0.2,0.2l0,0l0.1,0.2l0,0c0,0,0.1,0,0.3-0.1c0.2-0.1,0.3-0.1,0.3-0.1
		l0.1,0.1c0,0-0.1,0.1-0.2,0.2c-0.1,0.1-0.2,0.2-0.2,0.2l0,0l0.1,0.2l0,0c0,0,0.1,0,0.3-0.1c0.1,0,0.2-0.1,0.3-0.1h0l0.1,0.1
		c0,0-0.1,0.1-0.2,0.2c-0.1,0.1-0.2,0.2-0.2,0.2l0,0l0.1,0.1l0,0l0,0c0,0,0.1-0.1,0.2-0.1c0.2-0.1,0.3-0.1,0.3-0.1l0.1,0.1
		c0,0-0.1,0.1-0.2,0.3c-0.1,0.1-0.2,0.2-0.2,0.2l0,0l0.1,0.1c0,0,0,0,0,0.1l0,0l0,0l0,0c0,0,0.1-0.1,0.2-0.1
		c0.2-0.1,0.2-0.1,0.3-0.1l0.1,0.1c0,0-0.1,0.1-0.2,0.3c-0.1,0.1-0.2,0.2-0.2,0.2l0,0l0.1,0.2l0,0c0,0,0.1-0.1,0.2-0.1
		c0.1-0.1,0.2-0.1,0.3-0.1l0.1,0.1c0,0-0.1,0.2-0.1,0.3c-0.1,0.1-0.1,0.2-0.1,0.2l0,0l0.2,0.1l0,0c0,0,0.1-0.1,0.2-0.1
		c0.1-0.1,0.2-0.1,0.3-0.1L81,159c0,0,0,0.1-0.1,0.3c-0.1,0.1-0.1,0.2-0.1,0.2l0,0l0.2,0.1l0,0c0,0,0.1-0.1,0.2-0.2
		c0.1-0.1,0.2-0.2,0.3-0.2l0,0l0.1,0c0,0,0,0.1-0.1,0.3c-0.1,0.1-0.1,0.2-0.1,0.2l0,0l0.2,0.1l0,0c0,0,0.1-0.1,0.2-0.2
		c0.2-0.1,0.2-0.2,0.2-0.2l0.1,0.1c0,0,0,0.1-0.1,0.3c-0.1,0.1-0.1,0.2-0.1,0.3l0,0l0.2,0.1l0,0c0,0,0.1-0.1,0.2-0.2
		c0.1-0.1,0.2-0.2,0.2-0.2l0.1,0.1c0,0,0,0.1-0.1,0.3c0,0.1-0.1,0.3-0.1,0.3l0,0l0.2,0.1l0,0l0,0c0,0,0.1-0.1,0.2-0.2
		c0.1-0.1,0.2-0.2,0.2-0.2l0.1,0.1c0,0,0,0.1-0.1,0.3c0,0.1-0.1,0.3-0.1,0.3l0,0l0,0c0,0,0,0,0.1,0l0.1,0l0,0c0,0,0.1-0.1,0.2-0.2
		c0.1-0.1,0.2-0.2,0.2-0.2l0.1,0.1c0,0,0,0.1,0,0.3c0,0.1-0.1,0.3-0.1,0.3l0,0l0.2,0.1l0,0c0,0,0.1-0.1,0.2-0.2
		c0.1-0.1,0.2-0.2,0.2-0.2l0.1,0.1c0,0,0,0.2,0,0.3c0,0.1,0,0.3,0,0.3l0,0l0.2,0.1l0,0c0,0,0.1-0.1,0.2-0.2c0.1-0.1,0.2-0.2,0.2-0.2
		l0.1,0c0,0,0,0.1,0,0.3c0,0.1,0,0.3,0,0.3l0,0L85,162l0,0c0,0,0.1-0.1,0.1-0.2c0.1-0.1,0.1-0.2,0.2-0.2l0.1,0c0,0,0,0,0,0l0,0
		c0,0,0,0.1,0,0.3c0,0.1,0,0.3,0,0.3l0,0l0.2,0.1l0,0c0,0,0.1-0.1,0.1-0.2c0.1-0.2,0.1-0.2,0.2-0.3c0,0,0,0,0,0l0.1,0
		c0,0,0,0.1,0,0.3c0,0.1,0,0.3,0,0.3l0,0l0.2,0l0,0c0,0,0.1-0.1,0.1-0.2c0.1-0.2,0.1-0.2,0.1-0.3l0.1,0c0,0,0,0.1,0,0.3
		c0,0.1,0,0.3,0,0.3l0,0l0.2,0l0,0c0,0,0-0.1,0.1-0.3c0.1-0.2,0.1-0.3,0.1-0.3l0.1,0c0,0,0,0.1,0.1,0.3c0,0.1,0,0.3,0,0.3l0,0l0.2,0
		l0,0c0,0,0-0.1,0.1-0.3c0.1-0.2,0.1-0.3,0.1-0.3l0.1,0c0,0,0,0.1,0.1,0.3c0,0.1,0,0.3,0,0.3l0,0l0.1,0c0,0,0.1,0,0.1,0l0,0l0,0
		c0,0,0-0.1,0.1-0.3c0-0.2,0.1-0.3,0.1-0.3l0.1,0c0,0,0,0.1,0.1,0.3c0,0.1,0.1,0.3,0.1,0.3l0,0l0.1,0c0,0,0.1,0,0.1,0l0,0l0,0l0,0
		c0,0,0-0.1,0.1-0.3c0-0.2,0.1-0.3,0.1-0.3l0.1,0c0,0,0.1,0.1,0.1,0.3c0,0.1,0.1,0.3,0.1,0.3l0,0l0.2,0l0,0c0,0,0-0.1,0-0.3
		c0-0.2,0.1-0.3,0.1-0.3l0.1,0c0,0,0.1,0.1,0.1,0.3c0,0.1,0.1,0.3,0.1,0.3l0,0l0.2,0l0,0c0,0,0-0.1,0-0.3c0-0.2,0-0.3,0.1-0.3l0.1,0
		c0,0,0.1,0.1,0.1,0.3c0.1,0.1,0.1,0.2,0.1,0.2l0,0l0.2,0l0,0c0,0,0-0.1,0-0.3c0-0.2,0-0.3,0-0.3l0.1,0c0,0,0.1,0.1,0.1,0.3
		c0.1,0.1,0.1,0.2,0.1,0.2l0,0l0.2,0l0,0c0,0,0-0.1,0-0.3c0-0.2,0-0.3,0-0.3l0.1,0c0,0,0,0,0,0c0,0,0.1,0.1,0.2,0.3
		c0.1,0.1,0.1,0.2,0.1,0.2l0,0l0.2-0.1l0,0c0,0,0-0.1,0-0.3c0-0.2,0-0.3,0-0.3l0,0c0,0,0,0,0,0l0.1,0c0,0,0.1,0.1,0.2,0.2
		c0.1,0.1,0.1,0.2,0.1,0.2l0,0l0.2-0.1l0,0c0,0,0-0.1,0-0.3c0-0.2,0-0.3,0-0.3l0.1,0c0,0,0.1,0.1,0.2,0.2c0.1,0.1,0.2,0.2,0.2,0.2
		l0,0l0.2-0.1l0,0c0,0,0-0.1,0-0.3c0-0.2,0-0.3,0-0.3l0.1-0.1c0,0,0.1,0.1,0.2,0.2c0.1,0.1,0.2,0.2,0.2,0.2l0,0l0.2-0.1l0,0l0,0
		c0,0,0-0.1-0.1-0.3c0-0.2-0.1-0.3,0-0.3l0.1-0.1c0,0,0.1,0.1,0.2,0.2c0.1,0.1,0.2,0.2,0.2,0.2l0,0l0.1,0l0.1-0.1l0,0
		c0,0,0-0.1-0.1-0.3c0-0.2-0.1-0.3-0.1-0.3l0.1-0.1c0,0,0.1,0.1,0.2,0.2c0.1,0.1,0.2,0.2,0.2,0.2l0,0l0.2-0.1l0,0c0,0,0-0.1-0.1-0.3
		c-0.1-0.2-0.1-0.3-0.1-0.3l0.1-0.1c0,0,0.1,0.1,0.2,0.2c0.1,0.1,0.2,0.2,0.2,0.2l0,0l0.2-0.1l0,0c0,0-0.1-0.1-0.1-0.3
		c-0.1-0.2-0.1-0.3-0.1-0.3l0.1-0.1c0,0,0.1,0,0.2,0.2c0.1,0.1,0.2,0.2,0.2,0.2l0,0l0.2-0.1l0,0c0,0-0.1-0.1-0.1-0.2
		c-0.1-0.2-0.1-0.3-0.1-0.3l0,0l0.1,0c0,0,0.1,0.1,0.3,0.2c0.1,0.1,0.2,0.2,0.2,0.2l0,0l0.2-0.1l0,0c0,0-0.1-0.1-0.1-0.2
		c-0.1-0.2-0.1-0.3-0.1-0.3l0.1-0.1c0,0,0.1,0.1,0.3,0.1c0.1,0.1,0.2,0.1,0.2,0.1l0,0l0.2-0.1l0,0c0,0-0.1-0.1-0.1-0.2
		c-0.1-0.1-0.1-0.2-0.1-0.3l0.1-0.1c0,0,0.1,0,0.3,0.1c0.1,0.1,0.2,0.1,0.2,0.1l0,0l0.1-0.1l0,0l0,0c0,0-0.1-0.1-0.2-0.2
		c-0.1-0.1-0.1-0.2-0.2-0.3l0.1-0.1c0,0,0.1,0,0.3,0.1c0.1,0.1,0.2,0.1,0.2,0.1l0,0l0.1-0.1c0,0,0,0,0-0.1l0,0l0,0l0,0
		c0,0-0.1-0.1-0.2-0.2c-0.1-0.1-0.2-0.2-0.2-0.3l0.1-0.1c0,0,0.1,0,0.3,0.1c0.1,0.1,0.2,0.1,0.2,0.1l0,0l0.1-0.2l0,0
		c0,0-0.1-0.1-0.2-0.2c-0.1-0.1-0.2-0.2-0.2-0.2l0.1-0.1h0c0,0,0.2,0.1,0.3,0.1c0.1,0,0.3,0.1,0.3,0.1l0,0L99,157l0,0
		c0,0-0.1-0.1-0.2-0.2c-0.1-0.1-0.2-0.2-0.2-0.2l0.1-0.1c0,0,0.1,0,0.3,0.1c0.1,0,0.3,0.1,0.3,0.1l0,0l0.1-0.2l0,0
		c0,0-0.1-0.1-0.2-0.2c-0.1-0.1-0.2-0.2-0.2-0.2l0,0c0,0,0,0,0,0l0-0.1c0,0,0.1,0,0.3,0.1c0.1,0,0.3,0.1,0.3,0.1l0,0l0.1-0.2l0,0
		c0,0-0.1-0.1-0.2-0.2c-0.2-0.1-0.2-0.2-0.2-0.2l0.1-0.1c0,0,0.1,0,0.3,0c0.1,0,0.3,0.1,0.3,0.1l0,0l0.1-0.2l0,0
		c0,0-0.1-0.1-0.2-0.2c-0.1-0.1-0.2-0.2-0.2-0.2l0-0.1c0,0,0.1,0,0.3,0c0.1,0,0.3,0,0.3,0l0,0l0.1-0.2l0,0l0,0c0,0-0.1-0.1-0.2-0.1
		c-0.1-0.1-0.2-0.2-0.2-0.2l0-0.1c0,0,0.1,0,0.3,0c0.1,0,0.3,0,0.3,0l0,0l0-0.1c0,0,0-0.1,0-0.1l0,0l0,0c0,0-0.1-0.1-0.2-0.1
		c-0.1-0.1-0.2-0.1-0.3-0.2l0-0.1c0,0,0.1,0,0.3,0c0.1,0,0.3,0,0.3,0l0,0l0,0c0,0,0,0,0-0.1l0-0.1l0,0c0,0-0.1-0.1-0.2-0.1
		c-0.2-0.1-0.2-0.1-0.3-0.2l0-0.1c0,0,0.1,0,0.3,0c0.1,0,0.3,0,0.3,0l0,0l0-0.2l0,0c0,0-0.1-0.1-0.2-0.1c-0.2-0.1-0.2-0.1-0.3-0.1
		l0-0.1c0,0,0.2,0,0.3,0c0.1,0,0.3,0,0.3,0l0,0l0-0.2l0,0c0,0-0.1,0-0.3-0.1c-0.2-0.1-0.3-0.1-0.3-0.1l0-0.1c0,0,0.1,0,0.3-0.1
		c0.1,0,0.3,0,0.3,0l0,0l0-0.2l0,0c0,0-0.1,0-0.3-0.1c-0.2-0.1-0.3-0.1-0.3-0.1l0-0.1l0,0c0,0,0.1,0,0.3-0.1c0.1,0,0.3-0.1,0.3-0.1
		l0,0L100.9,150.7L100.9,150.7z M95.5,158.2l-4.4-6L91,152c0,0,0,0,0,0c0,0-0.1-0.2-0.2-0.4c0-0.3,0.1-0.5,0.3-0.7
		c0.2-0.1,0.4-0.3,0.4-0.3l0.2-0.1l0,0l7.2-2.3c0.2-0.1,0.3,0,0.4,0.2c0.1,0.7,0.2,1.4,0.2,2.1c0,3.1-1.3,5.9-3.4,7.8
		C95.8,158.4,95.6,158.3,95.5,158.2z M78.4,148.3c0.1-0.2,0.2-0.2,0.4-0.2l7.1,2.3l0.2,0.1c0,0,0,0,0,0c0,0,0.2,0.1,0.4,0.3
		c0.2,0.2,0.3,0.5,0.2,0.8c0,0,0,0,0,0c0,0,0,0,0,0c0,0.1,0,0.1,0,0.2c0,0.1-0.1,0.1-0.1,0.2l-0.1,0.2l0,0l-4.4,6.1
		c-0.1,0.1-0.3,0.2-0.5,0.1c-2.1-1.9-3.4-4.7-3.4-7.8C78.2,149.7,78.3,149,78.4,148.3z M78.5,148.1
		C78.5,148.1,78.5,148.1,78.5,148.1L78.5,148.1C78.5,148.1,78.5,148.1,78.5,148.1z M79.2,146.1c1.5-3.3,4.7-5.7,8.4-6.1c0,0,0,0,0,0
		c0.2,0,0.3,0.1,0.3,0.3v7.5v0.2c0,0,0,0,0,0c0,0-0.1,0.2-0.1,0.4c-0.1,0.2-0.4,0.4-0.6,0.5c-0.2,0-0.4,0-0.5,0c0,0,0,0,0,0l-0.2,0
		l0,0l-7.2-2.3C79.2,146.4,79.1,146.2,79.2,146.1z M79.1,146.4L79.1,146.4C79.1,146.4,79,146.3,79.1,146.4c0-0.1,0-0.1,0-0.1
		C79.1,146.3,79.1,146.3,79.1,146.4C79,146.3,79.1,146.4,79.1,146.4z M83.3,159.5C83.3,159.5,83.3,159.5,83.3,159.5
		C83.3,159.5,83.3,159.5,83.3,159.5L83.3,159.5z M83.6,159.7c-0.1-0.1-0.2-0.3-0.1-0.4l4.4-6l0.2-0.2c0.1-0.1,0.2-0.1,0.3-0.2
		c0,0,0,0,0,0c0,0,0,0,0,0c0.2-0.1,0.5-0.1,0.8,0c0.2,0.1,0.3,0.2,0.4,0.3c0,0,0,0,0,0l0.1,0.1l0,0l4.4,6.1c0.1,0.1,0,0.3-0.1,0.4
		c0,0,0,0,0,0c-1.5,0.9-3.3,1.4-5.2,1.4C86.9,161.1,85.1,160.5,83.6,159.7z M98.4,146.1c0,0.2,0,0.3-0.2,0.4l-7.1,2.3l-0.2,0.1
		c0,0,0,0,0,0c0,0-0.2,0-0.5,0c-0.3-0.1-0.5-0.2-0.6-0.5c-0.1-0.2-0.1-0.4-0.1-0.4c0,0,0,0,0,0v-0.2v0v-7.5c0-0.2,0.1-0.3,0.3-0.3
		c0,0,0,0,0,0C93.8,140.4,96.9,142.8,98.4,146.1z M98.5,146.3C98.6,146.3,98.6,146.3,98.5,146.3L98.5,146.3
		C98.6,146.3,98.6,146.3,98.5,146.3z M99.1,148L99.1,148C99.1,148.1,99.1,148.1,99.1,148C99.1,148.1,99.1,148.1,99.1,148z"/>
	<g id="XMLID_4_">
		<path id="XMLID_41_" class="st0" d="M113.9,151.1v7.9h-1.5v-17.2H124v1.4h-10.2v6.4h9.8v1.4H113.9z"/>
		<path id="XMLID_19_" class="st0" d="M140.7,159.1l-2.1-5h-8.9l-2.1,5h-1.6l7.2-17.2h1.8l7.2,17.2H140.7z M138.1,152.6l-3.9-9.3
			l-3.9,9.3H138.1z"/>
		<path id="XMLID_15_" class="st0" d="M159.6,146.3c0,2.1-1.2,3.4-3,3.9c2,0.5,3.3,1.9,3.3,4.2c0,3.3-2.4,4.7-6.1,4.7h-6.9v-17.2
			h6.6C157.1,141.9,159.6,143.1,159.6,146.3z M148.4,149.6h5.1c2.6,0,4.6-0.7,4.6-3.2c0-2.4-1.9-3.2-4.6-3.2h-5.1V149.6z
			 M148.4,157.6h5.4c2.8,0,4.6-0.8,4.6-3.3c0-2.5-1.8-3.3-4.6-3.3h-5.4V157.6z"/>
		<path id="XMLID_12_" class="st0" d="M178.3,146.6c0,3-2.3,4.8-5.9,4.8h-0.7l6.5,7.6h-1.9l-6.4-7.6h-2.6v7.6h-1.5v-17.2h6.6
			C176.2,141.9,178.3,143.6,178.3,146.6z M167.3,150.1h5c2.9,0,4.4-1.2,4.4-3.4c0-2.2-1.5-3.4-4.4-3.4h-5V150.1z"/>
		<path id="XMLID_10_" class="st0" d="M184.1,159.1v-17.2h1.5v17.2H184.1z"/>
		<path id="XMLID_8_" class="st0" d="M193.3,151.1v7.9h-1.5v-17.2h1.5v7.8h2.3l7.5-7.8h1.9l-8.3,8.5l8.8,8.7h-2l-8-7.9H193.3z"/>
		<path id="XMLID_5_" class="st0" d="M221.6,159.1l-2.1-5h-8.9l-2.1,5h-1.6l7.2-17.2h1.8l7.2,17.2H221.6z M218.9,152.6l-3.9-9.3
			l-3.9,9.3H218.9z"/>
	</g>
</g>
</svg>
